<?xml version="1.0" encoding="utf-8"?>
<!-- Generator: Adobe Illustrator 16.0.0, SVG Export Plug-In . SVG Version: 6.00 Build 0)  -->
<!DOCTYPE svg PUBLIC "-//W3C//DTD SVG 1.1//EN" "http://www.w3.org/Graphics/SVG/1.1/DTD/svg11.dtd">
<svg version="1.1" id="Layer_1" xmlns="http://www.w3.org/2000/svg" xmlns:xlink="http://www.w3.org/1999/xlink" x="0px" y="0px"
	 width="450px" height="150px" viewBox="0 0 450 150" enable-background="new 0 0 450 150" xml:space="preserve">
<g>
	<g>
		<path fill="#ED1C24" d="M76.443,30.752V31.5c10.271,0,19.569,4.163,26.305,10.897c6.735,6.738,10.896,16.031,10.896,26.302
			c0,10.272-4.161,19.569-10.896,26.304c-6.735,6.734-16.033,10.896-26.305,10.896c-10.275,0-19.568-4.162-26.301-10.896
			c-6.735-6.734-10.898-16.031-10.898-26.304c0-10.271,4.163-19.564,10.898-26.302C56.875,35.663,66.168,31.5,76.443,31.5V30.752
			v-0.744c-21.364,0-38.691,17.327-38.691,38.69c0,21.366,17.327,38.692,38.691,38.692c21.363,0,38.691-17.326,38.691-38.692
			c0-21.364-17.329-38.69-38.691-38.69V30.752z"/>
		<path fill="#1F1D57" d="M76.443,26.188v0.745c11.534,0,21.972,4.673,29.535,12.233c7.557,7.563,12.234,18,12.234,29.532
			c0,11.536-4.677,21.972-12.234,29.534c-7.563,7.559-18.001,12.232-29.535,12.232c-11.536,0-21.971-4.674-29.532-12.232
			c-7.557-7.563-12.236-17.998-12.236-29.534c0-11.532,4.679-21.969,12.236-29.532c7.561-7.56,17.996-12.233,29.532-12.233V26.188
			V25.44c-23.885,0-43.259,19.372-43.259,43.259c0,23.89,19.375,43.263,43.259,43.263c23.887,0,43.259-19.373,43.259-43.263
			c0-23.887-19.372-43.259-43.259-43.259V26.188z"/>
		<path fill-rule="evenodd" clip-rule="evenodd" fill="#1F1D57" d="M76.443,40.975c15.31,0,27.728,12.413,27.728,27.724
			c0,15.313-12.417,27.728-27.728,27.728c-15.312,0-27.727-12.414-27.727-27.728C48.716,53.388,61.131,40.975,76.443,40.975"/>
		<path fill="#1F1D57" d="M76.443,40.975v0.744c7.45,0,14.189,3.021,19.076,7.902c4.886,4.888,7.904,11.627,7.904,19.078
			c0,7.454-3.018,14.192-7.904,19.079c-4.887,4.885-11.626,7.9-19.076,7.904c-7.449-0.004-14.194-3.02-19.076-7.904
			c-4.886-4.887-7.907-11.625-7.907-19.079c0-7.451,3.021-14.19,7.907-19.078c4.882-4.881,11.627-7.902,19.076-7.902V40.975v-0.75
			c-15.72,0-28.477,12.751-28.477,28.474c0,15.724,12.757,28.474,28.477,28.474c15.724,0,28.471-12.75,28.471-28.474
			c0-15.722-12.747-28.474-28.471-28.474V40.975z"/>
		<polygon fill-rule="evenodd" clip-rule="evenodd" fill="#FFFFFF" points="64.971,45.179 85.736,45.179 85.736,57.693 
			98.252,57.693 98.252,78.458 85.736,78.458 85.736,90.976 64.971,90.976 64.971,78.458 52.46,78.458 52.46,57.693 64.971,57.693 
					"/>
		<polygon fill="#FFFFFF" points="64.971,45.179 64.971,45.26 85.658,45.26 85.658,57.775 98.173,57.775 98.173,78.38 85.658,78.38 
			85.658,90.892 65.055,90.892 65.055,78.38 52.54,78.38 52.54,57.775 65.055,57.775 65.055,45.179 64.971,45.179 64.971,45.26 
			64.971,45.179 64.89,45.179 64.89,57.616 52.378,57.616 52.378,78.542 64.89,78.542 64.89,91.052 85.818,91.052 85.818,78.542 
			98.333,78.542 98.333,57.616 85.814,57.616 85.818,45.102 64.89,45.102 64.89,45.179 		"/>
		<polygon fill-rule="evenodd" clip-rule="evenodd" fill="#1F1D57" points="48.575,82.356 49.505,85.269 52.538,85.261 
			50.081,87.058 51.022,89.968 48.575,88.161 46.119,89.968 47.065,87.058 44.607,85.261 47.638,85.269 		"/>
		<polygon fill-rule="evenodd" clip-rule="evenodd" fill="#1F1D57" points="104.071,82.356 105.004,85.269 108.037,85.261 
			105.581,87.058 106.523,89.968 104.071,88.161 101.621,89.968 102.562,87.058 100.109,85.261 103.139,85.269 		"/>
		<path fill="#ED1C24" d="M108.087,55.404c0.263-0.118,0.435-0.279,0.532-0.468c0.09-0.193,0.088-0.387-0.005-0.591
			c-0.052-0.11-0.101-0.178-0.146-0.198c-0.04-0.015-0.116-0.002-0.211,0.046l-1.145,0.53l-0.027,0.014
			c-0.162,0.076-0.192,0.221-0.092,0.432C107.184,55.578,107.547,55.657,108.087,55.404 M108.83,56.979
			c-0.462,0.215-0.919,0.222-1.371,0.028c-0.45-0.194-0.805-0.566-1.06-1.117c-0.008-0.015-0.045-0.11-0.11-0.286
			c-0.064-0.169-0.101-0.27-0.118-0.293c-0.036-0.083-0.105-0.104-0.205-0.055l-0.367,0.17c-0.268,0.127-0.429,0.26-0.476,0.4
			c-0.021,0.056-0.037,0.149-0.046,0.273c-0.006,0.131-0.056,0.216-0.152,0.263c-0.302,0.136-0.651-0.23-1.062-1.101
			c-0.415-0.891-0.471-1.402-0.17-1.544c0.07-0.031,0.135-0.038,0.196-0.026c0.061,0.015,0.148,0.069,0.25,0.161
			c0.087,0.066,0.168,0.101,0.242,0.105c0.069,0.005,0.173-0.025,0.306-0.085l2.661-1.242c0.096-0.043,0.166-0.101,0.209-0.163
			c0.046-0.062,0.071-0.146,0.068-0.249l-0.004-0.149c-0.005-0.088,0-0.171,0.019-0.248c0.025-0.08,0.087-0.143,0.2-0.192
			c0.078-0.035,0.149-0.035,0.23,0.004c0.084,0.038,0.155,0.134,0.218,0.275l0.068,0.135c0.008,0.026,0.046,0.122,0.107,0.291
			c0.063,0.166,0.119,0.301,0.166,0.403l0.032,0.069c0.095,0.202,0.257,0.503,0.485,0.909c0.224,0.406,0.353,0.642,0.384,0.709
			c0.242,0.515,0.305,1.013,0.191,1.49C109.619,56.394,109.316,56.751,108.83,56.979 M104.637,52.49
			c-0.458,0.331-0.962,0.414-1.512,0.246c-0.548-0.171-1.034-0.552-1.468-1.146c-0.205-0.283-0.381-0.602-0.53-0.951
			c-0.138-0.349-0.214-0.593-0.216-0.722c-0.006-0.182,0.089-0.399,0.277-0.651c0.192-0.252,0.377-0.441,0.552-0.569
			c0.223-0.16,0.396-0.159,0.52,0.018c0.083,0.113,0.068,0.308-0.043,0.583c-0.106,0.271-0.167,0.485-0.181,0.627
			c-0.026,0.321,0.081,0.641,0.316,0.963c0.09,0.127,0.196,0.22,0.317,0.278c0.126,0.058,0.236,0.049,0.329-0.019
			c0.149-0.106,0.187-0.279,0.117-0.513c-0.088-0.283-0.167-0.56-0.242-0.83c-0.117-0.428-0.132-0.838-0.054-1.233
			c0.077-0.4,0.283-0.717,0.6-0.947c0.379-0.278,0.826-0.362,1.344-0.25c0.518,0.11,0.981,0.441,1.376,0.989
			c0.15,0.204,0.265,0.423,0.344,0.659c0.08,0.237,0.133,0.369,0.161,0.401l0.119,0.09l0.161,0.146
			c0.088,0.124,0.088,0.339-0.001,0.65c-0.087,0.312-0.244,0.55-0.473,0.718c-0.11,0.082-0.232,0.117-0.365,0.107
			c-0.128-0.007-0.234-0.062-0.308-0.163c-0.079-0.112-0.111-0.276-0.09-0.498c0.021-0.21,0.037-0.423,0.056-0.628
			c0-0.252-0.065-0.469-0.193-0.642c-0.188-0.263-0.384-0.319-0.589-0.172c-0.148,0.111-0.196,0.273-0.136,0.481
			c0.057,0.214,0.136,0.457,0.235,0.734c0.165,0.489,0.232,0.921,0.181,1.298C105.189,51.915,104.992,52.232,104.637,52.49
			 M99.748,44.052c-0.299,0.323-0.557,0.785-0.775,1.392c-0.22,0.606-0.196,1.027,0.067,1.276c0.143,0.135,0.313,0.189,0.502,0.157
			c0.188-0.027,0.37-0.136,0.542-0.318c0.363-0.394,0.64-0.876,0.821-1.449c0.184-0.572,0.144-0.977-0.115-1.221
			c-0.144-0.133-0.314-0.178-0.509-0.142C100.085,43.784,99.913,43.882,99.748,44.052 M97.802,43.306
			c0.552-0.596,1.208-0.888,1.96-0.879c0.754,0.01,1.439,0.301,2.05,0.877c0.609,0.563,0.913,1.242,0.916,2.049
			c0,0.803-0.242,1.466-0.727,1.988c-0.526,0.565-1.177,0.835-1.954,0.813c-0.777-0.021-1.464-0.317-2.066-0.876
			c-0.578-0.539-0.892-1.192-0.937-1.953C97.004,44.566,97.254,43.893,97.802,43.306 M96.024,44.603
			c-0.092,0.146-0.253,0.191-0.49,0.14c-0.23-0.051-0.585-0.233-1.076-0.535c-0.717-0.45-0.989-0.811-0.814-1.093
			c0.04-0.066,0.091-0.116,0.142-0.145c0.057-0.031,0.146-0.046,0.279-0.042c0.114,0,0.239-0.066,0.363-0.186
			c0.132-0.128,0.284-0.33,0.459-0.61c0.106-0.171,0.145-0.281,0.1-0.341c-0.033-0.057-0.109-0.122-0.214-0.189l-0.178-0.111
			c-0.312-0.195-0.52-0.293-0.614-0.293c-0.095,0-0.198,0.094-0.318,0.291c-0.304,0.482-0.421,0.801-0.353,0.97l0.049,0.126
			c0.042,0.119,0.033,0.229-0.031,0.336c-0.174,0.276-0.674,0.16-1.499-0.356c-0.81-0.506-1.128-0.898-0.953-1.176l0.144-0.115
			c0.069-0.027,0.173-0.032,0.317-0.021c0.155,0.012,0.292-0.055,0.42-0.203c0.128-0.142,0.338-0.452,0.634-0.922l0.504-0.805
			c0.243-0.388,0.406-0.689,0.496-0.912c0.057-0.128,0.031-0.269-0.072-0.43l-0.065-0.181l0.046-0.18
			c0.09-0.146,0.271-0.179,0.544-0.103c0.274,0.076,0.652,0.268,1.133,0.567c0.687,0.431,0.95,0.787,0.774,1.066
			c-0.072,0.11-0.16,0.174-0.264,0.192c-0.1,0.015-0.169,0.021-0.214,0.015l-0.17,0.015c-0.093,0.016-0.249,0.205-0.479,0.566
			c-0.101,0.163-0.141,0.275-0.119,0.334c0.026,0.063,0.131,0.156,0.316,0.266l0.401,0.251c0.233,0.146,0.376,0.173,0.441,0.089
			c0.046-0.072,0.075-0.108,0.075-0.108c0.122-0.202,0.221-0.377,0.29-0.532c0.075-0.148,0.098-0.262,0.077-0.337
			c-0.04-0.082-0.082-0.172-0.111-0.27c-0.036-0.095-0.02-0.197,0.047-0.302c0.174-0.278,0.686-0.152,1.536,0.382
			c0.753,0.468,1.039,0.843,0.867,1.124c-0.063,0.099-0.128,0.157-0.204,0.171c-0.067,0.015-0.153,0.015-0.262,0.005
			c-0.122-0.019-0.269,0.073-0.413,0.269c-0.142,0.197-0.274,0.392-0.391,0.579l-1.133,1.813c-0.062,0.098-0.094,0.177-0.102,0.243
			c-0.005,0.064,0.008,0.139,0.051,0.221l0.021,0.074c0.03,0.083,0.052,0.154,0.055,0.215L96.024,44.603z M89.577,35.837
			c-0.03,0.13-0.112,0.216-0.233,0.252l-0.242,0.076c-0.113,0.04-0.206,0.13-0.278,0.281c-0.07,0.147-0.141,0.348-0.213,0.603
			l-0.649,2.429c-0.179,0.67-0.415,0.964-0.708,0.887c-0.123-0.035-0.23-0.122-0.333-0.265l-1.778-2.737
			c-0.118-0.18-0.222-0.281-0.314-0.308c-0.151-0.036-0.281,0.146-0.392,0.55l-0.057,0.227c-0.114,0.407-0.114,0.687-0.005,0.833
			c0.048,0.059,0.103,0.129,0.172,0.209c0.066,0.075,0.088,0.165,0.058,0.271c-0.083,0.317-0.488,0.379-1.221,0.181
			c-0.735-0.196-1.056-0.451-0.973-0.772c0.032-0.115,0.105-0.19,0.21-0.234c0.108-0.039,0.204-0.074,0.29-0.115
			c0.156-0.077,0.338-0.493,0.544-1.256l0.128-0.47c0.261-0.979,0.311-1.556,0.144-1.733c-0.068-0.074-0.144-0.156-0.233-0.244
			c-0.089-0.092-0.116-0.198-0.083-0.321c0.085-0.314,0.547-0.365,1.393-0.137c0.233,0.063,0.39,0.123,0.479,0.174
			c0.082,0.054,0.185,0.159,0.296,0.329l1.512,2.228c0.09,0.132,0.177,0.212,0.266,0.235c0.124,0.032,0.218-0.094,0.296-0.373
			c0.033-0.119,0.063-0.267,0.094-0.447c0.039-0.177,0.021-0.307-0.046-0.391c-0.059-0.067-0.128-0.142-0.199-0.23
			c-0.071-0.086-0.09-0.192-0.058-0.307c0.041-0.157,0.143-0.26,0.3-0.299c0.163-0.042,0.46-0.006,0.902,0.113
			c0.404,0.109,0.68,0.221,0.807,0.337C89.58,35.528,89.62,35.67,89.577,35.837 M78.783,35.657c-0.09-0.221-0.189-0.335-0.304-0.342
			c-0.095-0.009-0.19,0.105-0.289,0.325l-0.212,0.526c-0.03,0.073-0.045,0.124-0.045,0.151c-0.006,0.076,0.058,0.112,0.194,0.121
			l0.683,0.05c0.155,0.009,0.241-0.015,0.243-0.081c0-0.031-0.013-0.082-0.042-0.156C78.965,36.122,78.89,35.918,78.783,35.657
			 M82.064,38.481c-0.024,0.331-0.448,0.466-1.271,0.406l-0.726-0.049c-0.377-0.026-0.67-0.082-0.878-0.164
			c-0.207-0.079-0.304-0.22-0.29-0.413c0.011-0.125,0.09-0.214,0.245-0.258c0.151-0.05,0.234-0.113,0.239-0.185
			c0.017-0.236-0.159-0.365-0.523-0.389l-0.8-0.065c-0.226-0.016-0.372-0.011-0.443,0.007c-0.146,0.039-0.215,0.142-0.232,0.316
			c-0.003,0.085,0.07,0.159,0.226,0.219c0.157,0.056,0.233,0.149,0.22,0.283c-0.026,0.326-0.392,0.466-1.104,0.414
			c-0.485-0.034-0.802-0.092-0.967-0.174c-0.163-0.083-0.239-0.219-0.224-0.405c0.008-0.124,0.09-0.212,0.234-0.254
			c0.189-0.065,0.324-0.133,0.41-0.207c0.088-0.074,0.201-0.236,0.338-0.484l0.876-1.624c0.299-0.548,0.459-1.017,0.487-1.402
			c0.043-0.603,0.361-0.881,0.956-0.841c0.281,0.02,0.542,0.169,0.783,0.447c0.171,0.182,0.333,0.444,0.483,0.783
			c0.153,0.337,0.388,0.898,0.7,1.682c0.34,0.85,0.548,1.371,0.622,1.572c0.095,0.271,0.234,0.44,0.415,0.501
			c0.078,0.027,0.136,0.066,0.171,0.121L82.064,38.481z M74.869,34.556c0.054,0.422-0.1,0.658-0.471,0.704
			c-0.125,0.018-0.235-0.006-0.342-0.062c-0.103-0.059-0.259-0.231-0.463-0.519c-0.116-0.146-0.221-0.212-0.32-0.201
			c-0.166,0.02-0.229,0.183-0.193,0.49l0.292,2.348c0.027,0.254,0.105,0.427,0.224,0.521c0.059,0.045,0.174,0.091,0.328,0.142
			c0.16,0.047,0.249,0.14,0.266,0.276c0.042,0.325-0.463,0.556-1.517,0.682c-1.14,0.142-1.726,0.049-1.767-0.277
			c-0.01-0.092,0.003-0.164,0.049-0.219c0.043-0.058,0.136-0.122,0.28-0.186c0.115-0.058,0.199-0.141,0.249-0.252
			c0.053-0.109,0.063-0.376,0.033-0.792c-0.033-0.431-0.099-1.064-0.204-1.915c-0.047-0.381-0.147-0.562-0.296-0.542
			c-0.102,0.016-0.201,0.104-0.293,0.278c-0.094,0.166-0.19,0.332-0.285,0.489c-0.093,0.161-0.241,0.254-0.432,0.277
			c-0.135,0.018-0.255-0.022-0.358-0.116c-0.098-0.098-0.156-0.222-0.175-0.376c-0.04-0.324,0.026-0.665,0.196-1.021
			c0.168-0.358,0.36-0.553,0.574-0.577c0.072-0.009,0.177-0.006,0.32,0.014c0.143,0.016,0.327,0.008,0.564-0.02l1.891-0.231
			c0.183-0.026,0.333-0.061,0.452-0.109c0.114-0.048,0.225-0.078,0.335-0.093c0.191-0.021,0.404,0.1,0.641,0.362
			C74.688,33.897,74.826,34.205,74.869,34.556 M68.594,34.627L68.594,34.627c0.035,0.132,0,0.25-0.104,0.357
			c-0.108,0.103-0.177,0.19-0.208,0.258c-0.029,0.082-0.038,0.205-0.021,0.375c0.019,0.166,0.079,0.438,0.181,0.823l0.274,1.02
			l0.04,0.146c0.122,0.453,0.216,0.731,0.294,0.833c0.075,0.095,0.164,0.164,0.263,0.203c0.136,0.046,0.236,0.088,0.305,0.126
			c0.067,0.03,0.114,0.098,0.137,0.191c0.046,0.167-0.046,0.321-0.274,0.458c-0.225,0.149-0.639,0.298-1.247,0.459
			c-0.795,0.213-1.241,0.165-1.329-0.156c-0.021-0.096-0.01-0.18,0.045-0.252c0.053-0.075,0.105-0.143,0.153-0.208
			c0.055-0.082,0.08-0.209,0.068-0.39c-0.009-0.183-0.078-0.517-0.207-0.998l-0.258-0.958c-0.103-0.391-0.198-0.668-0.283-0.828
			c-0.08-0.168-0.19-0.271-0.323-0.318c-0.078-0.028-0.167-0.063-0.255-0.111c-0.088-0.044-0.148-0.128-0.18-0.245
			c-0.042-0.167,0.056-0.323,0.306-0.469c0.251-0.151,0.665-0.302,1.249-0.459C68.053,34.263,68.508,34.308,68.594,34.627
			 M66.307,38.951c0.108,0.245,0.154,0.541,0.129,0.891c-0.021,0.345-0.12,0.557-0.295,0.638c-0.056,0.025-0.159,0.052-0.306,0.078
			c-0.148,0.027-0.326,0.093-0.547,0.188l-2.332,1.037c-0.21,0.095-0.364,0.138-0.469,0.133c-0.098-0.003-0.175-0.061-0.224-0.173
			c-0.054-0.12-0.015-0.255,0.114-0.403c0.132-0.15,0.166-0.339,0.102-0.551c-0.043-0.15-0.225-0.578-0.539-1.283l-0.143-0.331
			c-0.139-0.309-0.334-0.703-0.587-1.19c-0.106-0.188-0.25-0.27-0.438-0.24c-0.103,0.016-0.194,0.019-0.281,0.013
			c-0.09-0.009-0.149-0.053-0.184-0.142c-0.142-0.303,0.244-0.653,1.139-1.054c0.802-0.354,1.317-0.491,1.541-0.39
			c0.066,0.023,0.121,0.081,0.162,0.173c0.048,0.109,0.03,0.207-0.038,0.292l-0.139,0.165c-0.119,0.136-0.127,0.316-0.029,0.541
			l0.998,2.227c0.121,0.282,0.248,0.451,0.377,0.516c0.131,0.061,0.299,0.043,0.519-0.056c0.333-0.15,0.54-0.337,0.615-0.57
			c0.045-0.123,0.05-0.296,0.022-0.509c-0.024-0.222,0.021-0.355,0.137-0.411c0.124-0.051,0.247-0.049,0.375,0.02
			C66.112,38.625,66.223,38.754,66.307,38.951 M56.823,41.482c0.25,0.361,0.65,0.712,1.199,1.05c0.547,0.34,0.964,0.409,1.261,0.203
			c0.164-0.119,0.25-0.27,0.263-0.462c0.01-0.186-0.057-0.387-0.204-0.594c-0.308-0.439-0.721-0.811-1.247-1.105
			c-0.521-0.298-0.924-0.346-1.216-0.141c-0.159,0.111-0.246,0.266-0.25,0.466C56.625,41.099,56.689,41.291,56.823,41.482
			 M55.684,43.233c-0.462-0.663-0.616-1.363-0.452-2.099c0.167-0.736,0.592-1.343,1.283-1.828c0.679-0.474,1.408-0.631,2.199-0.467
			c0.783,0.168,1.381,0.542,1.791,1.125c0.444,0.636,0.574,1.326,0.389,2.083c-0.181,0.751-0.612,1.365-1.286,1.834
			c-0.649,0.455-1.353,0.627-2.104,0.513C56.755,44.281,56.143,43.893,55.684,43.233 M53.119,44.262
			c-0.208-0.196-0.414-0.305-0.626-0.325c-0.214-0.015-0.397,0.054-0.553,0.218c-0.081,0.085-0.126,0.158-0.132,0.204
			c0,0.047,0.042,0.111,0.122,0.186l0.903,0.875l0.024,0.024c0.126,0.122,0.272,0.097,0.438-0.073
			C53.608,45.049,53.551,44.678,53.119,44.262 M54.322,43.012c0.365,0.35,0.542,0.772,0.516,1.265
			c-0.014,0.493-0.237,0.954-0.658,1.39c-0.011,0.015-0.088,0.083-0.225,0.204c-0.138,0.121-0.215,0.195-0.235,0.213
			c-0.065,0.064-0.059,0.138,0.02,0.215l0.292,0.281c0.213,0.203,0.393,0.305,0.541,0.299c0.061,0,0.155-0.02,0.277-0.052
			c0.125-0.042,0.219-0.024,0.3,0.049c0.231,0.229,0.016,0.69-0.655,1.384c-0.678,0.705-1.135,0.945-1.376,0.714l-0.091-0.176
			c-0.011-0.062,0.009-0.159,0.056-0.297c0.033-0.101,0.036-0.186,0.013-0.254c-0.021-0.071-0.083-0.157-0.191-0.257l-2.11-2.041
			c-0.075-0.072-0.15-0.118-0.229-0.138c-0.076-0.023-0.161-0.01-0.256,0.027l-0.142,0.058c-0.08,0.034-0.156,0.058-0.233,0.07
			c-0.083,0.005-0.166-0.03-0.251-0.117c-0.062-0.061-0.087-0.129-0.077-0.217c0.005-0.089,0.065-0.191,0.179-0.307l0.098-0.107
			c0.026-0.02,0.103-0.09,0.233-0.208c0.135-0.116,0.239-0.214,0.316-0.296l0.055-0.057c0.157-0.161,0.378-0.421,0.678-0.773
			c0.296-0.357,0.473-0.563,0.522-0.615c0.394-0.411,0.835-0.649,1.322-0.716C53.496,42.481,53.931,42.635,54.322,43.012
			 M48.04,50.918c0.367,0.239,0.87,0.413,1.501,0.525c0.636,0.11,1.05,0.014,1.243-0.287c0.111-0.169,0.135-0.344,0.075-0.522
			c-0.063-0.183-0.199-0.34-0.413-0.479c-0.449-0.292-0.972-0.477-1.569-0.555c-0.592-0.084-0.987,0.025-1.179,0.32
			c-0.108,0.168-0.126,0.342-0.057,0.529C47.713,50.635,47.843,50.792,48.04,50.918 M47.638,52.97
			c-0.679-0.443-1.079-1.034-1.202-1.777c-0.123-0.746,0.048-1.468,0.505-2.175c0.448-0.695,1.073-1.115,1.862-1.256
			c0.789-0.139,1.482-0.017,2.085,0.373c0.642,0.417,1.024,1.013,1.135,1.782c0.113,0.766-0.054,1.493-0.502,2.185
			c-0.433,0.665-1.018,1.087-1.759,1.265C49.021,53.54,48.314,53.405,47.638,52.97 M45.098,55.755
			c-0.455-0.184-0.742-0.116-0.871,0.197c-0.042,0.104-0.049,0.185-0.026,0.238c0.026,0.055,0.092,0.104,0.2,0.149l0.814,0.333
			l0.119,0.043c0.12,0.051,0.204,0.013,0.258-0.117C45.741,56.23,45.579,55.951,45.098,55.755 M49.337,54.417
			c0.137,0.054,0.209,0.197,0.212,0.42c0.009,0.229-0.056,0.51-0.194,0.854c-0.18,0.45-0.419,0.74-0.714,0.86
			c-0.24,0.109-0.605,0.126-1.103,0.055c-0.498-0.074-0.812-0.077-0.935-0.016c-0.119,0.06-0.204,0.154-0.261,0.283
			c-0.034,0.09-0.034,0.157-0.004,0.199c0.044,0.051,0.167,0.123,0.368,0.202c0.356,0.146,0.598,0.225,0.725,0.236
			c0.118,0.012,0.228-0.018,0.31-0.081c0.093-0.066,0.161-0.104,0.223-0.114l0.169,0.022c0.173,0.071,0.254,0.214,0.24,0.433
			c-0.013,0.22-0.111,0.569-0.304,1.042c-0.363,0.887-0.688,1.273-0.997,1.149c-0.088-0.032-0.147-0.115-0.181-0.238
			c-0.032-0.122-0.057-0.211-0.067-0.265c-0.058-0.158-0.266-0.312-0.621-0.453l-1.962-0.794c-0.342-0.137-0.605-0.176-0.783-0.114
			c-0.049,0.018-0.12,0.065-0.208,0.149c-0.093,0.071-0.19,0.092-0.295,0.049c-0.308-0.119-0.35-0.456-0.132-0.999
			c0.022-0.053,0.081-0.168,0.17-0.358c0.093-0.188,0.167-0.356,0.23-0.503c0.041-0.111,0.124-0.337,0.243-0.675
			c0.124-0.34,0.214-0.573,0.265-0.704c0.191-0.486,0.467-0.841,0.823-1.075c0.355-0.23,0.727-0.267,1.131-0.11
			c0.239,0.1,0.43,0.249,0.571,0.446c0.14,0.202,0.21,0.384,0.21,0.554c0,0.093,0.029,0.149,0.091,0.175
			c0.069,0.03,0.155-0.012,0.257-0.115c0.146-0.142,0.291-0.244,0.433-0.303c0.147-0.058,0.305-0.081,0.488-0.074
			c0.176,0.003,0.333,0.02,0.458,0.058c0.243,0.064,0.391,0.099,0.438,0.091c0.151,0.017,0.284-0.053,0.391-0.198
			C49.1,54.394,49.209,54.363,49.337,54.417 M43.489,59.617c0.421,0.083,0.594,0.303,0.522,0.666
			c-0.023,0.122-0.08,0.222-0.166,0.307c-0.086,0.08-0.299,0.175-0.634,0.282c-0.174,0.063-0.274,0.141-0.292,0.244
			c-0.027,0.163,0.108,0.271,0.409,0.33l2.322,0.452c0.25,0.05,0.436,0.032,0.566-0.05c0.063-0.05,0.142-0.137,0.234-0.273
			c0.099-0.139,0.211-0.193,0.345-0.168c0.323,0.065,0.381,0.614,0.181,1.659c-0.221,1.123-0.491,1.655-0.813,1.592
			c-0.088-0.018-0.152-0.058-0.191-0.115c-0.042-0.059-0.072-0.167-0.09-0.327c-0.019-0.123-0.072-0.229-0.162-0.314
			c-0.089-0.08-0.336-0.173-0.747-0.274c-0.418-0.102-1.043-0.233-1.883-0.397c-0.376-0.07-0.577-0.034-0.605,0.115
			c-0.021,0.1,0.038,0.224,0.171,0.362c0.135,0.144,0.254,0.282,0.383,0.426c0.121,0.137,0.165,0.303,0.125,0.497
			c-0.023,0.135-0.101,0.236-0.222,0.302c-0.118,0.064-0.256,0.079-0.405,0.053c-0.323-0.065-0.627-0.229-0.919-0.5
			c-0.289-0.275-0.411-0.518-0.366-0.728c0.01-0.069,0.048-0.17,0.108-0.299c0.06-0.133,0.11-0.311,0.158-0.54l0.362-1.873
			c0.036-0.179,0.048-0.336,0.039-0.459c-0.009-0.124-0.006-0.243,0.016-0.348c0.037-0.19,0.217-0.355,0.543-0.501
			C42.806,59.588,43.143,59.547,43.489,59.617 M45.119,65.659c0.257,0.01,0.556,0.102,0.896,0.285
			c0.348,0.171,0.514,0.335,0.508,0.478c0,0.048-0.024,0.155-0.059,0.324c-0.042,0.169-0.065,0.381-0.076,0.641l-0.117,3.226
			c-0.009,0.318-0.114,0.47-0.322,0.464c-0.137-0.003-0.24-0.095-0.311-0.268c-0.076-0.177-0.231-0.281-0.482-0.318
			c-0.509-0.078-0.983-0.121-1.409-0.135c-0.591-0.021-1.11-0.014-1.556,0.029c-0.263,0.02-0.431,0.111-0.496,0.276
			c-0.045,0.103-0.093,0.178-0.142,0.221c-0.053,0.045-0.122,0.063-0.203,0.063c-0.262-0.009-0.387-0.208-0.374-0.604l0.013-0.311
			l0.083-2.313c0.009-0.356,0.003-0.646-0.026-0.874c-0.026-0.224-0.037-0.361-0.037-0.412c0.005-0.166,0.126-0.304,0.359-0.417
			c0.227-0.109,0.466-0.162,0.716-0.152c0.145,0.004,0.271,0.043,0.369,0.114c0.097,0.071,0.145,0.169,0.141,0.296
			c-0.004,0.16-0.084,0.286-0.23,0.381c-0.147,0.092-0.244,0.175-0.29,0.244c-0.126,0.188-0.194,0.486-0.209,0.895
			c-0.009,0.323,0.02,0.533,0.087,0.627c0.068,0.089,0.218,0.14,0.438,0.147l0.542,0.019c0.122,0.002,0.201-0.011,0.241-0.044
			c0.057-0.041,0.086-0.131,0.09-0.27l0.002-0.148c0.006-0.143-0.039-0.236-0.135-0.291c-0.041-0.021-0.147-0.047-0.322-0.084
			c-0.14-0.03-0.236-0.075-0.274-0.129c-0.045-0.059-0.07-0.127-0.065-0.211c0.01-0.312,0.394-0.453,1.153-0.428
			c0.308,0.012,0.585,0.061,0.826,0.153c0.237,0.088,0.354,0.218,0.346,0.395v0.025c-0.003,0.101-0.087,0.172-0.267,0.209
			c-0.177,0.03-0.29,0.063-0.328,0.082c-0.124,0.074-0.187,0.212-0.195,0.406c-0.007,0.213,0.147,0.319,0.453,0.33l0.201,0.007
			c0.368,0.015,0.607-0.011,0.726-0.071c0.109-0.064,0.169-0.203,0.178-0.42l0.014-0.374c0.015-0.431-0.063-0.758-0.232-0.976
			c-0.078-0.097-0.218-0.202-0.427-0.317c-0.209-0.121-0.313-0.256-0.308-0.42c0-0.108,0.054-0.191,0.151-0.26
			C44.867,65.684,44.979,65.654,45.119,65.659 M45.939,71.354c0.324-0.059,0.565,0.363,0.723,1.261
			c0.157,0.889,0.072,1.359-0.25,1.416c-0.08,0.014-0.173-0.018-0.276-0.102c-0.094-0.084-0.177-0.139-0.237-0.164
			c-0.111-0.045-0.427-0.023-0.952,0.068c-0.354,0.064-0.523,0.141-0.507,0.234c0.022,0.113,0.175,0.213,0.464,0.287
			c0.27,0.071,0.542,0.132,0.82,0.188c0.45,0.088,0.7,0.138,0.734,0.156c0.063,0.016,0.146,0.048,0.248,0.086
			c0.102,0.044,0.16,0.1,0.173,0.173c0.01,0.065-0.006,0.13-0.052,0.186c-0.053,0.05-0.125,0.113-0.216,0.183
			c-0.082,0.072-0.584,0.426-1.508,1.051c-0.203,0.135-0.298,0.238-0.285,0.313c0.02,0.113,0.208,0.135,0.567,0.068l0.416-0.074
			c0.399-0.068,0.632-0.156,0.697-0.266c0.021-0.023,0.045-0.092,0.081-0.201c0.033-0.104,0.096-0.17,0.184-0.184
			c0.324-0.059,0.548,0.271,0.673,0.984c0.045,0.248,0.051,0.477,0.003,0.678c-0.038,0.205-0.146,0.318-0.322,0.35
			c-0.099,0.02-0.185-0.035-0.265-0.158c-0.08-0.127-0.187-0.199-0.315-0.221c-0.087-0.018-0.395,0-0.932,0.059
			c-0.556,0.055-1.085,0.123-1.582,0.209c-0.54,0.098-0.848,0.201-0.93,0.314c-0.023,0.037-0.067,0.131-0.134,0.285
			c-0.064,0.158-0.148,0.246-0.258,0.264c-0.326,0.057-0.563-0.332-0.712-1.17c-0.077-0.453-0.065-0.752,0.033-0.902
			c0.076-0.109,0.313-0.307,0.706-0.592c0.389-0.285,0.704-0.527,0.935-0.725c0.17-0.123,0.239-0.24,0.223-0.344
			c-0.018-0.084-0.095-0.144-0.235-0.178c-0.107-0.023-0.439-0.116-0.995-0.276c-0.563-0.168-0.901-0.3-1.025-0.394
			c-0.188-0.151-0.318-0.454-0.4-0.903c-0.125-0.717-0.026-1.1,0.298-1.158c0.109-0.021,0.239,0.033,0.396,0.152
			c0.149,0.116,0.292,0.17,0.435,0.16c0.441-0.023,0.868-0.07,1.281-0.141c0.229-0.041,0.78-0.166,1.646-0.368
			c0.186-0.037,0.316-0.149,0.402-0.323C45.767,71.463,45.851,71.367,45.939,71.354"/>
		<path fill="#ED1C24" d="M107.493,78.464c-0.262-0.063-0.522-0.207-0.79-0.432c-0.263-0.232-0.374-0.434-0.33-0.619
			c0.012-0.063,0.051-0.158,0.121-0.293c0.064-0.133,0.123-0.314,0.179-0.551l0.572-2.483c0.051-0.227,0.115-0.376,0.179-0.455
			c0.063-0.077,0.155-0.103,0.273-0.075c0.128,0.027,0.212,0.141,0.253,0.334c0.042,0.198,0.17,0.334,0.381,0.415
			c0.145,0.054,0.593,0.168,1.346,0.342l0.355,0.083c0.327,0.072,0.756,0.152,1.3,0.247c0.217,0.029,0.367-0.04,0.453-0.207
			c0.052-0.088,0.104-0.164,0.162-0.232c0.059-0.063,0.136-0.084,0.228-0.063c0.324,0.074,0.373,0.591,0.15,1.546
			c-0.196,0.855-0.4,1.344-0.607,1.463c-0.062,0.041-0.146,0.047-0.239,0.023c-0.118-0.025-0.188-0.094-0.211-0.199l-0.048-0.217
			c-0.042-0.172-0.18-0.287-0.417-0.344l-2.377-0.549c-0.297-0.068-0.513-0.07-0.638-0.006c-0.126,0.068-0.216,0.215-0.269,0.447
			c-0.083,0.355-0.057,0.637,0.081,0.836c0.076,0.107,0.209,0.219,0.401,0.324c0.188,0.111,0.271,0.232,0.241,0.355
			c-0.034,0.131-0.109,0.229-0.241,0.289C107.869,78.505,107.702,78.513,107.493,78.464 M110.69,69.83
			c0.219-0.102,0.326-0.207,0.326-0.322c0-0.094-0.11-0.184-0.342-0.271l-0.536-0.185c-0.079-0.024-0.128-0.036-0.157-0.036
			c-0.07,0-0.108,0.065-0.108,0.198l-0.011,0.686c-0.009,0.157,0.028,0.24,0.091,0.242c0.033,0,0.084-0.019,0.156-0.055
			C110.237,70.036,110.429,69.95,110.69,69.83 M108.04,73.252c-0.332-0.006-0.489-0.422-0.472-1.244l0.011-0.728
			c0.007-0.384,0.045-0.677,0.115-0.889c0.074-0.21,0.206-0.312,0.404-0.308c0.125,0,0.213,0.078,0.27,0.228
			c0.056,0.151,0.122,0.229,0.194,0.229c0.234,0.007,0.357-0.177,0.362-0.54l0.022-0.807c0-0.221-0.007-0.369-0.028-0.439
			c-0.051-0.139-0.159-0.209-0.333-0.213c-0.09,0-0.153,0.078-0.204,0.236c-0.049,0.158-0.14,0.239-0.268,0.233
			c-0.332-0.005-0.486-0.365-0.477-1.077c0.008-0.486,0.049-0.809,0.125-0.979c0.077-0.166,0.208-0.246,0.395-0.243
			c0.126,0.002,0.211,0.075,0.267,0.22c0.071,0.185,0.146,0.316,0.224,0.397c0.08,0.085,0.245,0.188,0.501,0.31l1.666,0.793
			c0.563,0.268,1.04,0.406,1.43,0.412c0.6,0.014,0.899,0.316,0.89,0.911c-0.006,0.276-0.142,0.55-0.409,0.81
			c-0.174,0.176-0.425,0.352-0.755,0.522c-0.33,0.17-0.875,0.434-1.641,0.785c-0.833,0.382-1.343,0.616-1.543,0.698
			c-0.265,0.112-0.421,0.264-0.475,0.448c-0.025,0.073-0.056,0.137-0.11,0.176L108.04,73.252z M111.126,66.564
			c-0.421,0.058-0.657-0.094-0.709-0.462c-0.017-0.122,0-0.236,0.055-0.342c0.057-0.104,0.229-0.265,0.508-0.47
			c0.146-0.12,0.212-0.227,0.197-0.329c-0.021-0.162-0.19-0.22-0.493-0.179l-2.343,0.33c-0.254,0.035-0.43,0.113-0.516,0.233
			c-0.048,0.064-0.093,0.176-0.138,0.333c-0.044,0.161-0.136,0.252-0.271,0.271c-0.322,0.046-0.562-0.453-0.709-1.507
			c-0.157-1.134-0.074-1.727,0.251-1.77c0.09-0.013,0.163,0.003,0.219,0.043c0.061,0.044,0.12,0.137,0.188,0.279
			c0.059,0.115,0.144,0.196,0.255,0.245c0.11,0.049,0.376,0.054,0.794,0.021c0.427-0.044,1.064-0.124,1.913-0.244
			c0.378-0.052,0.558-0.153,0.534-0.305c-0.011-0.1-0.109-0.194-0.281-0.285c-0.167-0.088-0.336-0.185-0.495-0.277
			c-0.16-0.092-0.261-0.234-0.283-0.428c-0.021-0.135,0.015-0.256,0.109-0.356c0.091-0.101,0.219-0.161,0.371-0.186
			c0.326-0.044,0.666,0.015,1.027,0.178c0.363,0.164,0.56,0.352,0.589,0.563c0.009,0.075,0.006,0.18-0.009,0.322
			c-0.012,0.146-0.006,0.332,0.026,0.56l0.268,1.889c0.022,0.186,0.063,0.334,0.112,0.449c0.051,0.114,0.084,0.226,0.1,0.337
			c0.027,0.192-0.09,0.405-0.35,0.648C111.785,66.368,111.479,66.515,111.126,66.564 M111.038,60.312L111.038,60.312
			c-0.129,0.034-0.249,0.002-0.359-0.101c-0.103-0.108-0.191-0.174-0.262-0.202c-0.08-0.035-0.211-0.038-0.373-0.021
			c-0.168,0.025-0.44,0.09-0.822,0.199l-1.017,0.292l-0.143,0.042c-0.449,0.13-0.725,0.234-0.823,0.308
			c-0.096,0.082-0.166,0.169-0.201,0.27c-0.045,0.135-0.088,0.236-0.119,0.305c-0.034,0.071-0.096,0.116-0.189,0.143
			c-0.17,0.049-0.326-0.04-0.469-0.264c-0.146-0.225-0.306-0.637-0.477-1.239c-0.228-0.796-0.185-1.24,0.133-1.331
			c0.094-0.028,0.18-0.015,0.251,0.036c0.077,0.056,0.144,0.105,0.214,0.153c0.076,0.053,0.208,0.072,0.387,0.059
			c0.182-0.013,0.516-0.087,0.992-0.226l0.955-0.271c0.389-0.112,0.661-0.215,0.827-0.301c0.16-0.081,0.266-0.194,0.307-0.327
			c0.03-0.08,0.064-0.166,0.108-0.258c0.043-0.089,0.128-0.151,0.241-0.183c0.166-0.046,0.326,0.05,0.476,0.297
			c0.155,0.249,0.312,0.66,0.48,1.238C111.395,59.762,111.357,60.221,111.038,60.312"/>
		<polygon fill-rule="evenodd" clip-rule="evenodd" fill="#1F1D57" points="55.269,76.235 55.269,68.069 75.402,68.069 
			67.662,76.235 		"/>
		<polygon fill-rule="evenodd" clip-rule="evenodd" fill="#ED1C24" points="55.269,59.905 55.269,68.069 75.402,68.069 
			67.662,59.905 		"/>
		<polygon fill-rule="evenodd" clip-rule="evenodd" fill="#1F1D57" points="83.499,88.237 75.332,88.237 75.332,68.106 
			83.499,75.847 		"/>
		<polygon fill-rule="evenodd" clip-rule="evenodd" fill="#ED1C24" points="67.162,88.237 75.332,88.237 75.332,68.106 
			67.162,75.847 		"/>
		<polygon fill-rule="evenodd" clip-rule="evenodd" fill="#1F1D57" points="95.438,59.905 95.438,68.069 75.312,68.069 
			83.052,59.905 		"/>
		<polygon fill-rule="evenodd" clip-rule="evenodd" fill="#ED1C24" points="95.438,76.235 95.438,68.069 75.312,68.069 
			83.052,76.235 		"/>
		<polygon fill-rule="evenodd" clip-rule="evenodd" fill="#1F1D57" points="67.162,47.915 75.332,47.915 75.332,68.045 
			67.162,60.309 		"/>
		<polygon fill-rule="evenodd" clip-rule="evenodd" fill="#ED1C24" points="83.499,47.915 75.332,47.915 75.332,68.045 
			83.499,60.309 		"/>
		<path fill="#ED1C24" d="M92.092,97.905c0.559,0.93,0.641,1.217,0.615,1.354c-0.028,0.191-0.234,0.357-0.111,0.572
			c0.257,0.422,1.096-0.07,1.372-0.24c1.451-0.869,1.337-1.205,1.214-1.404c-0.124-0.205-0.304-0.139-0.526-0.139
			c-0.182,0-0.244,0.072-0.956-1.109l-0.389-0.654c-0.282-0.463-0.631-1.066-0.596-1.285c0.051-0.264,0.308-0.404,0.167-0.643
			c-0.269-0.449-1.094,0.029-1.491,0.268c-0.135,0.076-1.482,0.891-1.198,1.367c0.15,0.25,0.421,0.117,0.69,0.217
			c0.127,0.051,0.311,0.205,0.817,1.043L92.092,97.905z M87.849,100.062c-0.059-0.15-0.057-0.285,0.165-0.379
			c0.495-0.211,0.787,0.119,0.967,0.551c0.162,0.369,0.138,0.707-0.271,0.881c-0.215,0.094-0.363,0.131-0.713-0.695L87.849,100.062z
			 M87.016,98.108c-0.085-0.207-0.207-0.408,0.055-0.52c0.39-0.168,0.67,0.186,0.803,0.506c0.17,0.393,0.194,0.732-0.23,0.914
			c-0.225,0.094-0.259-0.049-0.38-0.328L87.016,98.108z M89.48,97.067c-0.234-0.547-0.831-1.025-2.13-0.471
			c-0.166,0.07-0.327,0.154-0.49,0.23c-0.159,0.084-0.314,0.166-0.487,0.24c-0.263,0.113-0.534,0.211-0.8,0.305
			c-0.267,0.111-0.535,0.203-0.799,0.314c-0.221,0.096-0.458,0.348-0.343,0.619c0.206,0.49,0.612-0.258,1.023,0.834l0.796,2.078
			c0.458,1.199-0.198,0.947-0.011,1.393c0.107,0.246,0.41,0.271,0.635,0.176c0.247-0.105,0.481-0.217,0.719-0.334
			c0.242-0.109,0.489-0.221,0.728-0.324c0.219-0.094,0.44-0.176,0.655-0.258c0.218-0.08,0.444-0.164,0.684-0.266
			c1.432-0.607,1.533-1.688,1.231-2.396c-0.25-0.6-0.921-0.76-1.257-0.748c-0.087-0.008-0.177-0.006-0.214-0.098
			c-0.038-0.092,0.004-0.164,0.044-0.248C89.634,97.802,89.618,97.397,89.48,97.067 M82.754,101.603
			c0.079,0.406-0.044,0.85-0.502,0.939c-0.817,0.16-1.627-1.564-1.749-2.209c-0.08-0.373,0.05-0.855,0.473-0.939
			C81.866,99.226,82.619,100.911,82.754,101.603 M82.091,103.745c1.544-0.297,2.779-1.66,2.461-3.289
			c-0.188-0.979-1.35-2.666-3.445-2.26c-1.653,0.322-2.716,1.709-2.403,3.318C79.019,103.13,80.491,104.06,82.091,103.745
			 M72.521,102.349c-0.054,1.006-0.618,0.697-0.641,1.1c-0.026,0.563,1.07,0.621,1.437,0.639c1.252,0.066,1.455-0.133,1.469-0.41
			c0.021-0.371-0.379-0.283-0.42-0.641c-0.029-0.221-0.029-0.527-0.018-0.752c0.027-0.488,0.09-0.506,0.259-0.498
			c0.426,0.023,0.535,0.375,0.605,0.734c0.185,1.035,0.304,1.75,1.536,1.816c0.869,0.045,1.244-0.244,1.26-0.539
			c0.022-0.471-0.501-0.064-0.554-0.785c-0.068-0.844-0.288-1.209-0.815-1.434c-0.093-0.043-0.192-0.084-0.182-0.197
			c0.001-0.094,0.058-0.113,0.129-0.146c0.443-0.189,0.69-0.625,0.716-1.088c0.052-1.025-0.939-1.467-1.812-1.512
			c-0.245-0.014-0.5-0.012-0.75-0.014c-0.252,0-0.502,0-0.747-0.012c-0.153-0.006-0.317-0.029-0.472-0.053
			c-0.16-0.018-0.314-0.041-0.472-0.053c-0.311-0.012-0.918,0.012-0.941,0.434c-0.026,0.48,0.592,0.018,0.526,1.213L72.521,102.349z
			 M74.476,99.851c0.029-0.238,0.029-0.414,0.317-0.4c0.443,0.027,0.519,0.414,0.5,0.793c-0.028,0.48-0.207,0.75-0.703,0.725
			c-0.256-0.014-0.208-0.184-0.183-0.387L74.476,99.851z M68.747,100.839c-0.261,1.047-0.408,1.307-0.525,1.391
			c-0.148,0.113-0.416,0.088-0.474,0.328c-0.124,0.479,0.821,0.723,1.138,0.801c1.641,0.41,1.792,0.09,1.849-0.133
			c0.058-0.236-0.113-0.318-0.275-0.479c-0.124-0.127-0.227-0.119,0.111-1.453l0.184-0.746c0.133-0.523,0.305-1.197,0.491-1.322
			c0.218-0.154,0.502-0.068,0.57-0.338c0.127-0.508-0.791-0.754-1.244-0.869c-0.146-0.035-1.679-0.416-1.814,0.123
			c-0.069,0.283,0.214,0.381,0.337,0.639c0.05,0.125,0.075,0.361-0.161,1.316L68.747,100.839z M61.968,99.122
			c-0.207,0.182-0.5,0.455-0.742,0.584c-0.313,0.168-0.655-0.094-0.799,0.238c-0.096,0.23-0.084,0.461,0.934,0.893
			c0.282,0.123,1.052,0.439,1.237,0.012c0.156-0.369-0.377-0.377-0.256-0.654c0.146-0.354,0.373-0.27,0.745-0.113
			c1.141,0.486,1.307,0.592,1.172,0.912c-0.104,0.246-0.486-0.064-0.63,0.279c-0.19,0.441,0.421,0.705,1.438,1.135
			c0.355,0.154,1.357,0.605,1.577,0.084c0.175-0.406-0.351-0.24-0.355-0.883c-0.007-0.691-0.156-3.324-0.191-3.582
			c-0.079-0.586-0.201-1.385-0.819-1.648c-0.636-0.27-1.019,0.002-1.226,0.494c-0.241,0.564-0.796,1.064-1.225,1.465L61.968,99.122z
			 M63.57,99.255c-0.077-0.033-0.269-0.086-0.213-0.207c0.033-0.088,0.272-0.313,0.335-0.381c0.062-0.064,0.363-0.439,0.533-0.369
			c0.158,0.068,0.167,0.383,0.185,0.523c0.016,0.125,0.061,0.58,0.019,0.686c-0.045,0.109-0.254,0.004-0.328-0.027L63.57,99.255z
			 M58.762,93.278c-0.102-0.455-0.151-0.531-0.538-0.813c-0.284-0.207-1.108-0.842-1.431-0.398
			c-0.269,0.377,0.356,0.461,0.002,1.158c-0.259,0.498-0.591,0.951-0.919,1.406c-0.203,0.279-0.502,0.664-0.743,0.898
			c-0.35,0.359-0.62-0.039-0.859,0.293c-0.295,0.408,0.323,0.914,0.611,1.123c0.292,0.213,0.964,0.643,1.268,0.225
			c0.225-0.305-0.218-0.4-0.022-0.865c0.082-0.189,0.242-0.428,0.37-0.605c0.095-0.125,0.394-0.527,0.593-0.387
			c0.133,0.096,0.181,0.359,0.211,0.508l0.675,3.137c0.036,0.148,0.083,0.301,0.209,0.391c0.418,0.305,1.008-0.58,1.21-0.861
			l1.176-1.619c0.168-0.238,0.452-0.627,0.7-0.789c0.316-0.215,0.55,0.158,0.808-0.193c0.314-0.436-0.392-0.896-0.666-1.1
			c-0.265-0.191-0.887-0.674-1.177-0.271c-0.248,0.338,0.156,0.484,0.051,0.811c-0.053,0.182-0.244,0.453-0.356,0.609
			c-0.082,0.107-0.271,0.359-0.427,0.244c-0.114-0.08-0.18-0.406-0.209-0.525L58.762,93.278z"/>
	</g>
	<g>
		<path d="M15.879,119.435c0.627-1.283,1.339-2.58,2.141-3.623l1.086-0.102c-0.63,1.186-1.246,2.441-1.616,3.582L15.879,119.435z"/>
		<path d="M19.701,125.442l0.702-3.68l-0.944-5.941h1.915l0.196,2.301c0.072,1.043,0.072,1.67,0.072,2.055h0.032
			c0.212-0.6,0.442-1.229,0.771-1.939l1.111-2.416h1.871l-3.254,5.953l-0.684,3.668H19.701z"/>
		<path d="M29.322,120.79c0,2.197-1.173,4.77-3.298,4.77c-1.754,0-2.143-1.385-2.143-2.414c0-2.355,1.301-4.797,3.413-4.797
			C29.063,118.349,29.322,119.819,29.322,120.79 M25.653,123.062c0,0.512,0.015,1.141,0.573,1.141c0.854,0,1.338-2.371,1.338-3.625
			c0-0.471-0.127-0.871-0.557-0.871C26.24,119.706,25.642,121.858,25.653,123.062"/>
		<path d="M35.797,118.464l-0.883,4.693c-0.173,0.83-0.271,1.617-0.358,2.285h-1.539l0.056-0.928l-0.028-0.027
			c-0.516,0.74-1.155,1.072-1.814,1.072c-0.925,0-1.328-0.699-1.328-1.613c0-0.443,0.074-0.912,0.173-1.443l0.756-4.039h1.784
			l-0.756,3.971c-0.075,0.428-0.128,0.783-0.128,1.109c0,0.344,0.128,0.559,0.428,0.559c0.457,0,0.914-0.6,1.114-1.6l0.741-4.039
			H35.797z"/>
		<path d="M35.812,125.442l0.898-4.736c0.158-0.799,0.258-1.598,0.36-2.242h1.528c-0.033,0.357-0.058,0.729-0.102,1.154h0.043
			c0.512-0.881,1.139-1.27,1.726-1.27c0.113,0,0.198,0,0.284,0.027l-0.329,1.787c-0.069,0-0.199-0.016-0.299-0.016
			c-0.768,0-1.497,0.883-1.712,2.068l-0.611,3.227H35.812z"/>
		<path d="M44.061,115.952c0.583-0.1,1.327-0.17,1.925-0.17c0.645,0,1.613,0.129,2.199,0.77c0.412,0.445,0.6,1.143,0.6,1.658
			c0,1.34-0.643,2.338-1.247,2.881c-0.666,0.572-1.622,0.842-2.422,0.842c-0.156,0-0.314,0-0.456-0.018l-0.672,3.527h-1.74
			L44.061,115.952z M44.942,120.448c0.117,0.014,0.231,0.014,0.343,0.014c1.3,0,1.7-1.283,1.7-2.123c0-0.645-0.299-1.102-1-1.102
			c-0.173,0-0.327,0.016-0.427,0.043L44.942,120.448z"/>
		<path d="M51.665,125.442c0.017-0.371,0.04-0.756,0.057-1.168h-0.041c-0.557,0.926-1.229,1.285-1.785,1.285
			c-1.013,0-1.512-0.873-1.512-2.1c0-2.115,1.055-5.111,4.052-5.111c0.697,0,1.398,0.115,1.829,0.285l-0.771,3.883
			c-0.176,0.813-0.299,2.17-0.29,2.926H51.665z M52.308,119.72c-0.144-0.027-0.271-0.041-0.372-0.041
			c-1.17,0-1.797,2.324-1.81,3.355c0,0.611,0.082,1.053,0.525,1.053c0.484,0,0.941-0.799,1.199-2.068L52.308,119.72z"/>
		<path d="M54.219,125.442l0.901-4.736c0.155-0.799,0.256-1.598,0.359-2.242h1.524c-0.027,0.357-0.057,0.729-0.103,1.154h0.046
			c0.513-0.881,1.141-1.27,1.727-1.27c0.112,0,0.197,0,0.283,0.027l-0.329,1.787c-0.07,0-0.198-0.016-0.298-0.016
			c-0.771,0-1.498,0.883-1.709,2.068l-0.616,3.227H54.219z"/>
		<path d="M62.411,116.579l-0.358,1.885h1.313l-0.227,1.256H61.81l-0.613,3.238c-0.044,0.248-0.06,0.459-0.06,0.586
			c0,0.43,0.217,0.588,0.543,0.588c0.129,0,0.314,0,0.485-0.029l-0.213,1.34c-0.329,0.088-0.728,0.117-1.069,0.117
			c-1.068,0-1.601-0.6-1.601-1.543c0-0.313,0.058-0.699,0.127-1.041l0.614-3.256h-0.813l0.244-1.256h0.816l0.284-1.441
			L62.411,116.579z"/>
		<path d="M62.838,125.442l0.899-4.705c0.156-0.816,0.27-1.613,0.368-2.273h1.53l-0.075,0.902h0.029
			c0.491-0.658,1.127-1.018,1.885-1.018c0.985,0,1.355,0.688,1.355,1.529c0,0.414-0.069,0.842-0.171,1.328l-0.798,4.236h-1.78
			l0.824-4.336c0.042-0.242,0.088-0.471,0.088-0.742c0-0.328-0.145-0.557-0.447-0.557c-0.409,0-0.967,0.611-1.224,1.938
			l-0.699,3.697H62.838z"/>
		<path d="M73.84,125.142c-0.614,0.258-1.217,0.389-2.014,0.389c-1.712,0-2.37-1.129-2.37-2.629c0-2.023,1.129-4.553,3.356-4.553
			c1.27,0,1.84,0.943,1.853,1.898c0,1.914-1.539,2.627-3.48,2.568c-0.01,0.201,0,0.561,0.157,0.816c0.173,0.285,0.484,0.5,0.971,0.5
			c0.586,0,0.998-0.145,1.413-0.342L73.84,125.142z M72.583,119.78c-0.542,0-1.025,0.697-1.224,1.695
			c0.94,0.045,1.723-0.328,1.723-1.057C73.082,120.021,72.926,119.78,72.583,119.78"/>
		<path d="M74.639,125.442l0.897-4.736c0.16-0.799,0.257-1.598,0.356-2.242h1.529c-0.027,0.357-0.06,0.729-0.103,1.154h0.042
			c0.515-0.881,1.145-1.27,1.728-1.27c0.117,0,0.198,0,0.286,0.027l-0.327,1.787c-0.072,0-0.203-0.016-0.3-0.016
			c-0.769,0-1.5,0.883-1.712,2.068l-0.614,3.227H74.639z"/>
		<path d="M79.089,123.917c0.286,0.154,0.628,0.299,1.125,0.285c0.516-0.012,0.802-0.342,0.802-0.787
			c0-0.381-0.188-0.656-0.672-1.041c-0.598-0.484-0.883-1.098-0.883-1.697c0-1.283,0.998-2.328,2.579-2.328
			c0.615,0,1.06,0.115,1.315,0.262l-0.386,1.297c-0.198-0.115-0.528-0.215-0.827-0.215c-0.572,0-0.929,0.299-0.929,0.77
			c0,0.357,0.201,0.568,0.527,0.844c0.788,0.598,1.043,1.283,1.043,1.824c0,1.543-1.067,2.4-2.667,2.4
			c-0.644,0-1.213-0.189-1.455-0.359L79.089,123.917z"/>
		<path d="M85.382,125.442l1.341-6.979h1.786l-1.344,6.979H85.382z M87.051,116.679c0-0.512,0.373-1.098,0.998-1.098
			c0.586,0,0.862,0.439,0.842,0.928c-0.015,0.713-0.501,1.115-1.028,1.115C87.294,117.624,87.04,117.206,87.051,116.679"/>
		<path d="M88.489,125.442l0.905-4.705c0.155-0.816,0.269-1.613,0.366-2.273h1.525l-0.066,0.902h0.027
			c0.484-0.658,1.126-1.018,1.884-1.018c0.984,0,1.354,0.688,1.354,1.529c0,0.414-0.07,0.842-0.17,1.328l-0.799,4.236H91.73
			l0.828-4.336c0.043-0.242,0.087-0.471,0.087-0.742c0-0.328-0.144-0.557-0.443-0.557c-0.412,0-0.971,0.611-1.227,1.938
			l-0.699,3.697H88.489z"/>
		<polygon points="100.676,115.825 99.923,119.735 101.879,119.735 102.619,115.825 104.401,115.825 102.562,125.442 
			100.791,125.442 101.535,121.36 99.609,121.36 98.837,125.442 97.054,125.442 98.894,115.825 		"/>
		<path d="M108.67,125.142c-0.613,0.258-1.213,0.389-2.013,0.389c-1.714,0-2.368-1.129-2.368-2.629c0-2.023,1.126-4.553,3.354-4.553
			c1.268,0,1.84,0.943,1.854,1.898c0,1.914-1.54,2.627-3.482,2.568c-0.018,0.201,0,0.561,0.157,0.816
			c0.174,0.285,0.485,0.5,0.972,0.5c0.583,0,0.998-0.145,1.413-0.342L108.67,125.142z M107.416,119.78
			c-0.541,0-1.029,0.697-1.228,1.695c0.941,0.045,1.724-0.328,1.724-1.057C107.911,120.021,107.756,119.78,107.416,119.78"/>
		<path d="M112.993,125.442c0.014-0.371,0.041-0.756,0.058-1.168h-0.043c-0.559,0.926-1.229,1.285-1.787,1.285
			c-1.01,0-1.511-0.873-1.511-2.1c0-2.115,1.059-5.111,4.054-5.111c0.7,0,1.397,0.115,1.823,0.285l-0.77,3.883
			c-0.168,0.813-0.3,2.17-0.285,2.926H112.993z M113.637,119.72c-0.144-0.027-0.271-0.041-0.376-0.041
			c-1.168,0-1.795,2.324-1.809,3.355c0,0.611,0.085,1.053,0.525,1.053c0.489,0,0.943-0.799,1.202-2.068L113.637,119.72z"/>
		<polygon points="115.546,125.442 117.428,115.571 119.216,115.571 117.333,125.442 		"/>
		<path d="M122.254,116.579l-0.358,1.885h1.312l-0.228,1.256h-1.326l-0.613,3.238c-0.044,0.248-0.056,0.459-0.056,0.586
			c0,0.43,0.212,0.588,0.541,0.588c0.128,0,0.311,0,0.485-0.029l-0.213,1.34c-0.329,0.088-0.73,0.117-1.072,0.117
			c-1.071,0-1.595-0.6-1.595-1.543c0-0.313,0.052-0.699,0.126-1.041l0.61-3.256h-0.81l0.241-1.256h0.813l0.284-1.441
			L122.254,116.579z"/>
		<path d="M122.682,125.442l1.884-9.871h1.782l-0.729,3.75h0.029c0.429-0.553,1.016-0.973,1.757-0.973
			c0.883,0,1.268,0.631,1.268,1.529c0,0.396-0.071,0.842-0.168,1.369l-0.803,4.195h-1.783l0.814-4.195
			c0.042-0.271,0.085-0.652,0.085-0.883c0-0.344-0.126-0.557-0.43-0.557c-0.412,0-0.952,0.6-1.153,1.654l-0.772,3.98H122.682z"/>
		<path d="M132.626,115.71c-0.627,1.287-1.341,2.57-2.139,3.598l-1.089,0.127c0.632-1.184,1.245-2.457,1.614-3.582L132.626,115.71z"
			/>
	</g>
</g>
<rect x="211.327" y="-26.154" width="14.173" height="14.173"/>
<g>
	<path fill="#1F1D57" d="M146.818,67.24c0,0.085-0.024,0.163-0.071,0.23c-0.047,0.069-0.132,0.124-0.256,0.167
		s-0.289,0.077-0.494,0.103c-0.205,0.025-0.466,0.039-0.782,0.039c-0.308,0-0.564-0.013-0.77-0.039
		c-0.205-0.026-0.367-0.06-0.487-0.103c-0.12-0.043-0.205-0.098-0.256-0.167c-0.051-0.068-0.077-0.145-0.077-0.23v-13.5H143.6
		l-4.808,13.487c-0.034,0.111-0.09,0.203-0.167,0.275c-0.077,0.073-0.182,0.13-0.314,0.173c-0.132,0.043-0.301,0.071-0.506,0.083
		s-0.453,0.02-0.743,0.02c-0.291,0-0.539-0.011-0.744-0.032c-0.205-0.021-0.374-0.056-0.506-0.103
		c-0.133-0.047-0.237-0.104-0.314-0.173c-0.077-0.068-0.128-0.149-0.154-0.243l-4.641-13.487h-0.026v13.5
		c0,0.085-0.023,0.163-0.07,0.23c-0.047,0.069-0.135,0.124-0.263,0.167c-0.128,0.043-0.293,0.077-0.494,0.103
		c-0.201,0.025-0.459,0.039-0.775,0.039c-0.308,0-0.564-0.013-0.77-0.039c-0.205-0.026-0.37-0.06-0.494-0.103
		c-0.124-0.043-0.209-0.098-0.256-0.167c-0.047-0.068-0.07-0.145-0.07-0.23V52.459c0-0.436,0.115-0.77,0.346-1
		c0.23-0.231,0.539-0.346,0.923-0.346h2.205c0.393,0,0.731,0.032,1.013,0.096c0.282,0.064,0.526,0.171,0.731,0.32
		c0.205,0.15,0.376,0.346,0.513,0.59s0.256,0.545,0.359,0.904l3.59,9.884h0.051l3.718-9.859c0.111-0.359,0.232-0.662,0.365-0.91
		c0.132-0.248,0.286-0.449,0.461-0.603s0.382-0.263,0.622-0.327s0.517-0.096,0.833-0.096h2.269c0.231,0,0.43,0.03,0.596,0.09
		c0.167,0.06,0.303,0.147,0.41,0.263s0.188,0.256,0.244,0.423c0.056,0.167,0.083,0.357,0.083,0.571V67.24z"/>
	<path fill="#1F1D57" d="M160.266,66.381c0,0.248-0.011,0.455-0.032,0.622c-0.021,0.167-0.054,0.301-0.096,0.404
		c-0.043,0.103-0.096,0.178-0.16,0.225s-0.135,0.07-0.211,0.07h-8.333c-0.282,0-0.519-0.083-0.711-0.25s-0.289-0.438-0.289-0.814
		V52.177c0-0.376,0.096-0.647,0.289-0.814s0.429-0.25,0.711-0.25h8.282c0.077,0,0.145,0.021,0.205,0.064
		c0.06,0.043,0.111,0.118,0.154,0.225c0.042,0.107,0.075,0.244,0.096,0.41c0.021,0.167,0.032,0.378,0.032,0.634
		c0,0.24-0.011,0.442-0.032,0.609c-0.021,0.167-0.054,0.301-0.096,0.404c-0.043,0.103-0.094,0.177-0.154,0.224
		c-0.06,0.047-0.128,0.07-0.205,0.07h-5.923v4.051h5.013c0.077,0,0.147,0.023,0.211,0.07c0.064,0.047,0.117,0.12,0.16,0.218
		c0.042,0.098,0.075,0.23,0.096,0.397c0.021,0.167,0.032,0.37,0.032,0.609c0,0.248-0.011,0.453-0.032,0.615
		c-0.021,0.163-0.054,0.293-0.096,0.391c-0.043,0.098-0.096,0.169-0.16,0.211c-0.064,0.043-0.135,0.064-0.211,0.064h-5.013v4.679
		h5.974c0.077,0,0.147,0.024,0.211,0.071s0.117,0.122,0.16,0.224c0.042,0.103,0.075,0.237,0.096,0.404
		C160.255,65.926,160.266,66.133,160.266,66.381z"/>
	<path fill="#1F1D57" d="M174.278,52.497c0,0.248-0.011,0.46-0.032,0.635c-0.021,0.175-0.054,0.316-0.096,0.423
		c-0.043,0.107-0.096,0.186-0.16,0.237s-0.135,0.077-0.211,0.077h-4.154V67.24c0,0.085-0.028,0.163-0.083,0.23
		c-0.056,0.069-0.147,0.124-0.275,0.167c-0.128,0.043-0.301,0.077-0.519,0.103c-0.218,0.025-0.49,0.039-0.814,0.039
		s-0.596-0.013-0.814-0.039c-0.218-0.026-0.391-0.06-0.519-0.103c-0.128-0.043-0.22-0.098-0.276-0.167
		c-0.056-0.068-0.083-0.145-0.083-0.23V53.869h-4.154c-0.085,0-0.158-0.026-0.218-0.077c-0.06-0.051-0.111-0.13-0.154-0.237
		c-0.043-0.107-0.075-0.248-0.096-0.423c-0.021-0.175-0.032-0.387-0.032-0.635c0-0.256,0.011-0.474,0.032-0.654
		c0.021-0.179,0.053-0.322,0.096-0.429c0.042-0.107,0.094-0.184,0.154-0.231c0.06-0.047,0.132-0.07,0.218-0.07h11.692
		c0.077,0,0.147,0.023,0.211,0.07c0.064,0.047,0.117,0.124,0.16,0.231c0.042,0.107,0.075,0.25,0.096,0.429
		C174.267,52.023,174.278,52.241,174.278,52.497z"/>
	<path fill="#1F1D57" d="M188.546,67.266c0,0.094-0.017,0.173-0.051,0.237s-0.115,0.118-0.244,0.16
		c-0.128,0.043-0.316,0.073-0.564,0.09c-0.248,0.017-0.585,0.026-1.013,0.026c-0.359,0-0.646-0.009-0.859-0.026
		c-0.214-0.017-0.383-0.049-0.507-0.096s-0.211-0.107-0.263-0.179c-0.051-0.073-0.094-0.161-0.128-0.263l-1.487-3.705
		c-0.18-0.419-0.354-0.791-0.525-1.116c-0.171-0.325-0.361-0.596-0.571-0.814c-0.209-0.218-0.451-0.382-0.724-0.494
		c-0.274-0.111-0.59-0.167-0.949-0.167h-1.051v6.32c0,0.085-0.028,0.163-0.083,0.23c-0.056,0.069-0.147,0.124-0.275,0.167
		c-0.128,0.043-0.299,0.077-0.513,0.103c-0.214,0.025-0.487,0.039-0.821,0.039c-0.325,0-0.596-0.013-0.814-0.039
		c-0.218-0.026-0.391-0.06-0.519-0.103c-0.128-0.043-0.218-0.098-0.27-0.167c-0.051-0.068-0.077-0.145-0.077-0.23V52.177
		c0-0.376,0.096-0.647,0.289-0.814s0.429-0.25,0.711-0.25h4.294c0.436,0,0.795,0.009,1.077,0.025
		c0.282,0.018,0.538,0.039,0.769,0.064c0.667,0.094,1.267,0.256,1.801,0.487c0.534,0.231,0.987,0.532,1.359,0.904
		c0.372,0.372,0.656,0.812,0.853,1.321c0.196,0.508,0.295,1.092,0.295,1.75c0,0.556-0.071,1.063-0.211,1.52
		c-0.141,0.457-0.349,0.865-0.622,1.224s-0.611,0.671-1.013,0.936c-0.402,0.265-0.859,0.479-1.372,0.641
		c0.248,0.12,0.48,0.265,0.699,0.436c0.218,0.171,0.423,0.378,0.615,0.622c0.192,0.244,0.374,0.521,0.545,0.833
		c0.171,0.312,0.337,0.665,0.5,1.058l1.397,3.269c0.128,0.325,0.214,0.562,0.257,0.711
		C188.525,67.063,188.546,67.181,188.546,67.266z M184.2,56.01c0-0.547-0.124-1.008-0.372-1.384
		c-0.248-0.376-0.654-0.641-1.218-0.795c-0.171-0.042-0.366-0.077-0.583-0.103c-0.218-0.026-0.519-0.039-0.904-0.039h-1.513v4.705
		h1.718c0.479,0,0.897-0.058,1.256-0.173c0.359-0.115,0.658-0.277,0.897-0.487s0.418-0.459,0.539-0.75
		C184.141,56.694,184.2,56.369,184.2,56.01z"/>
	<path fill="#1F1D57" d="M205.687,59.215c0,1.376-0.171,2.607-0.513,3.692c-0.342,1.085-0.851,2.006-1.526,2.763
		s-1.511,1.333-2.506,1.73s-2.147,0.596-3.455,0.596c-1.291,0-2.417-0.169-3.378-0.506c-0.961-0.337-1.763-0.853-2.403-1.545
		c-0.641-0.692-1.122-1.572-1.442-2.641s-0.481-2.333-0.481-3.795c0-1.342,0.171-2.549,0.513-3.622
		c0.341-1.072,0.85-1.985,1.525-2.737c0.675-0.752,1.511-1.329,2.506-1.73c0.996-0.401,2.151-0.603,3.468-0.603
		c1.256,0,2.365,0.167,3.327,0.5s1.765,0.846,2.41,1.539c0.645,0.692,1.132,1.566,1.461,2.622S205.687,57.779,205.687,59.215z
		 M202.148,59.395c0-0.872-0.068-1.665-0.205-2.378c-0.137-0.713-0.37-1.324-0.699-1.833c-0.329-0.508-0.767-0.902-1.314-1.18
		c-0.547-0.277-1.23-0.417-2.051-0.417c-0.829,0-1.521,0.156-2.077,0.468c-0.556,0.313-1.004,0.729-1.346,1.25
		c-0.342,0.521-0.583,1.13-0.724,1.827c-0.141,0.696-0.211,1.434-0.211,2.211c0,0.906,0.068,1.72,0.205,2.442
		c0.137,0.723,0.367,1.34,0.692,1.853c0.325,0.513,0.76,0.904,1.308,1.173c0.547,0.27,1.235,0.404,2.064,0.404
		c0.829,0,1.521-0.154,2.077-0.462s1.004-0.726,1.346-1.256c0.342-0.53,0.583-1.147,0.724-1.853
		C202.078,60.939,202.148,60.189,202.148,59.395z"/>
	<path fill="#1F1D57" d="M219.878,56.151c0,0.932-0.146,1.756-0.436,2.474c-0.291,0.718-0.713,1.323-1.269,1.814
		c-0.556,0.491-1.237,0.865-2.045,1.122s-1.758,0.384-2.852,0.384h-1.385v5.295c0,0.085-0.028,0.163-0.083,0.23
		c-0.056,0.069-0.147,0.124-0.275,0.167c-0.128,0.043-0.299,0.077-0.513,0.103c-0.214,0.025-0.487,0.039-0.821,0.039
		c-0.325,0-0.596-0.013-0.814-0.039c-0.218-0.026-0.391-0.06-0.519-0.103c-0.128-0.043-0.218-0.098-0.27-0.167
		c-0.051-0.068-0.077-0.145-0.077-0.23V52.318c0-0.402,0.104-0.703,0.314-0.904s0.485-0.301,0.827-0.301h3.91
		c0.393,0,0.767,0.015,1.122,0.045c0.354,0.03,0.78,0.094,1.275,0.192s0.998,0.28,1.506,0.544c0.508,0.265,0.942,0.601,1.301,1.007
		c0.359,0.406,0.632,0.88,0.82,1.423C219.784,54.867,219.878,55.476,219.878,56.151z M216.353,56.395
		c0-0.581-0.103-1.06-0.308-1.436c-0.205-0.376-0.458-0.654-0.756-0.833c-0.299-0.18-0.613-0.292-0.942-0.34
		c-0.329-0.047-0.669-0.07-1.019-0.07h-1.436v5.628h1.513c0.539,0,0.989-0.073,1.353-0.218c0.363-0.145,0.66-0.348,0.891-0.609
		c0.23-0.26,0.406-0.572,0.525-0.936S216.353,56.822,216.353,56.395z"/>
	<path fill="#1F1D57" d="M237.415,59.215c0,1.376-0.171,2.607-0.513,3.692s-0.851,2.006-1.525,2.763s-1.511,1.333-2.506,1.73
		c-0.996,0.397-2.147,0.596-3.455,0.596c-1.291,0-2.416-0.169-3.379-0.506c-0.961-0.337-1.762-0.853-2.403-1.545
		c-0.641-0.692-1.122-1.572-1.442-2.641s-0.481-2.333-0.481-3.795c0-1.342,0.171-2.549,0.513-3.622
		c0.341-1.072,0.85-1.985,1.525-2.737c0.675-0.752,1.511-1.329,2.506-1.73c0.996-0.401,2.151-0.603,3.468-0.603
		c1.257,0,2.365,0.167,3.326,0.5c0.962,0.333,1.766,0.846,2.41,1.539c0.646,0.692,1.133,1.566,1.462,2.622
		S237.415,57.779,237.415,59.215z M233.877,59.395c0-0.872-0.068-1.665-0.205-2.378c-0.137-0.713-0.37-1.324-0.699-1.833
		c-0.328-0.508-0.767-0.902-1.313-1.18c-0.547-0.277-1.23-0.417-2.051-0.417c-0.829,0-1.521,0.156-2.077,0.468
		c-0.556,0.313-1.004,0.729-1.346,1.25c-0.342,0.521-0.583,1.13-0.725,1.827c-0.141,0.696-0.211,1.434-0.211,2.211
		c0,0.906,0.068,1.72,0.205,2.442c0.137,0.723,0.367,1.34,0.692,1.853c0.325,0.513,0.761,0.904,1.309,1.173
		c0.547,0.27,1.234,0.404,2.063,0.404s1.521-0.154,2.077-0.462c0.555-0.308,1.004-0.726,1.346-1.256
		c0.342-0.53,0.583-1.147,0.724-1.853C233.807,60.939,233.877,60.189,233.877,59.395z"/>
	<path fill="#1F1D57" d="M249.364,66.292c0,0.256-0.011,0.472-0.032,0.647s-0.054,0.32-0.097,0.436
		c-0.043,0.116-0.096,0.199-0.16,0.25c-0.063,0.051-0.139,0.077-0.224,0.077h-7.603c-0.282,0-0.52-0.083-0.712-0.25
		s-0.288-0.438-0.288-0.814V51.574c0-0.085,0.027-0.162,0.083-0.23s0.147-0.124,0.276-0.167c0.128-0.042,0.301-0.077,0.519-0.103
		c0.218-0.025,0.489-0.039,0.814-0.039c0.333,0,0.606,0.013,0.82,0.039c0.214,0.026,0.385,0.06,0.513,0.103
		c0.128,0.043,0.22,0.099,0.275,0.167s0.084,0.145,0.084,0.23V64.92h5.218c0.085,0,0.16,0.023,0.224,0.07
		c0.064,0.047,0.117,0.124,0.16,0.231s0.075,0.248,0.097,0.423C249.354,65.819,249.364,66.035,249.364,66.292z"/>
	<path fill="#1F1D57" d="M254.735,67.24c0,0.085-0.028,0.163-0.084,0.23c-0.056,0.069-0.147,0.124-0.275,0.167
		s-0.299,0.077-0.513,0.103c-0.214,0.025-0.487,0.039-0.82,0.039c-0.325,0-0.597-0.013-0.814-0.039
		c-0.218-0.026-0.391-0.06-0.519-0.103c-0.129-0.043-0.221-0.098-0.276-0.167c-0.056-0.068-0.083-0.145-0.083-0.23V51.574
		c0-0.085,0.027-0.162,0.083-0.23s0.149-0.124,0.282-0.167c0.133-0.042,0.306-0.077,0.52-0.103c0.213-0.025,0.482-0.039,0.808-0.039
		c0.333,0,0.606,0.013,0.82,0.039c0.214,0.026,0.385,0.06,0.513,0.103c0.128,0.043,0.22,0.099,0.275,0.167s0.084,0.145,0.084,0.23
		V67.24z"/>
	<path fill="#1F1D57" d="M269.389,52.497c0,0.248-0.011,0.46-0.032,0.635c-0.021,0.175-0.054,0.316-0.096,0.423
		c-0.043,0.107-0.097,0.186-0.161,0.237c-0.063,0.051-0.134,0.077-0.211,0.077h-4.154V67.24c0,0.085-0.027,0.163-0.083,0.23
		c-0.056,0.069-0.147,0.124-0.275,0.167s-0.302,0.077-0.52,0.103c-0.218,0.025-0.489,0.039-0.813,0.039
		c-0.325,0-0.597-0.013-0.814-0.039c-0.218-0.026-0.391-0.06-0.52-0.103c-0.128-0.043-0.22-0.098-0.275-0.167
		c-0.056-0.068-0.083-0.145-0.083-0.23V53.869h-4.153c-0.086,0-0.159-0.026-0.219-0.077s-0.111-0.13-0.153-0.237
		c-0.043-0.107-0.075-0.248-0.097-0.423c-0.021-0.175-0.031-0.387-0.031-0.635c0-0.256,0.01-0.474,0.031-0.654
		c0.021-0.179,0.054-0.322,0.097-0.429c0.042-0.107,0.094-0.184,0.153-0.231c0.06-0.047,0.133-0.07,0.219-0.07h11.691
		c0.077,0,0.147,0.023,0.211,0.07c0.064,0.047,0.118,0.124,0.161,0.231c0.042,0.107,0.074,0.25,0.096,0.429
		C269.378,52.023,269.389,52.241,269.389,52.497z"/>
	<path fill="#1F1D57" d="M282.875,66.445c0.103,0.308,0.167,0.551,0.192,0.731c0.025,0.179-0.009,0.314-0.103,0.404
		c-0.094,0.089-0.261,0.145-0.5,0.167c-0.239,0.021-0.568,0.032-0.987,0.032c-0.436,0-0.775-0.007-1.019-0.02
		c-0.244-0.013-0.43-0.039-0.558-0.077c-0.129-0.039-0.219-0.092-0.27-0.161c-0.052-0.068-0.095-0.158-0.128-0.269l-1.115-3.333
		h-6.23l-1.052,3.243c-0.034,0.12-0.079,0.22-0.135,0.301c-0.056,0.082-0.146,0.146-0.269,0.192c-0.124,0.047-0.3,0.079-0.526,0.096
		s-0.523,0.026-0.891,0.026c-0.394,0-0.701-0.013-0.923-0.039c-0.223-0.026-0.376-0.088-0.462-0.186
		c-0.085-0.098-0.115-0.237-0.09-0.417c0.026-0.18,0.09-0.419,0.192-0.718l5.115-14.717c0.052-0.146,0.111-0.263,0.18-0.353
		c0.068-0.09,0.177-0.158,0.327-0.205c0.149-0.047,0.356-0.077,0.621-0.09c0.266-0.013,0.615-0.02,1.052-0.02
		c0.504,0,0.905,0.007,1.205,0.02c0.299,0.013,0.532,0.043,0.698,0.09c0.167,0.047,0.286,0.117,0.359,0.211
		c0.072,0.094,0.135,0.222,0.186,0.384L282.875,66.445z M275.26,54.279h-0.013l-2.346,7.051h4.705L275.26,54.279z"/>
	<path fill="#1F1D57" d="M298.874,66.522c0,0.196-0.034,0.372-0.103,0.525s-0.16,0.282-0.275,0.385s-0.252,0.177-0.41,0.224
		s-0.318,0.071-0.481,0.071h-1.436c-0.299,0-0.558-0.03-0.775-0.09c-0.218-0.06-0.419-0.169-0.603-0.327
		c-0.184-0.158-0.361-0.372-0.532-0.641c-0.171-0.269-0.363-0.617-0.577-1.044l-4.128-7.756c-0.239-0.461-0.482-0.959-0.73-1.493
		s-0.47-1.053-0.667-1.558h-0.025c0.034,0.615,0.06,1.229,0.077,1.839c0.017,0.611,0.025,1.242,0.025,1.891v8.679
		c0,0.085-0.023,0.162-0.07,0.23s-0.128,0.126-0.243,0.173c-0.116,0.047-0.271,0.083-0.469,0.109
		c-0.196,0.025-0.448,0.039-0.756,0.039c-0.3,0-0.547-0.013-0.743-0.039c-0.197-0.026-0.351-0.062-0.462-0.109
		s-0.188-0.105-0.23-0.173c-0.043-0.068-0.064-0.145-0.064-0.23v-14.91c0-0.402,0.117-0.703,0.353-0.904s0.523-0.301,0.865-0.301
		h1.808c0.325,0,0.599,0.028,0.82,0.083c0.223,0.056,0.421,0.147,0.597,0.275c0.175,0.128,0.34,0.306,0.493,0.532
		c0.154,0.227,0.312,0.506,0.475,0.839l3.23,6.064c0.188,0.368,0.374,0.729,0.558,1.083c0.184,0.354,0.361,0.709,0.532,1.064
		s0.337,0.703,0.5,1.045c0.162,0.342,0.32,0.684,0.474,1.025h0.014c-0.026-0.598-0.045-1.222-0.058-1.872
		c-0.014-0.649-0.02-1.27-0.02-1.859v-7.782c0-0.085,0.025-0.162,0.077-0.231c0.051-0.068,0.136-0.128,0.256-0.179
		s0.277-0.088,0.475-0.109c0.196-0.021,0.448-0.032,0.756-0.032c0.291,0,0.534,0.011,0.731,0.032
		c0.196,0.021,0.348,0.058,0.455,0.109c0.106,0.051,0.182,0.111,0.224,0.179c0.043,0.069,0.064,0.146,0.064,0.231V66.522z"/>
	<path fill="#1F1D57" d="M321.373,67.24c0,0.085-0.028,0.163-0.084,0.23c-0.056,0.069-0.147,0.124-0.275,0.167
		s-0.299,0.077-0.513,0.103c-0.214,0.025-0.482,0.039-0.808,0.039c-0.333,0-0.608-0.013-0.827-0.039
		c-0.218-0.026-0.389-0.06-0.513-0.103s-0.214-0.098-0.269-0.167c-0.056-0.068-0.084-0.145-0.084-0.23v-6.705h-6.204v6.705
		c0,0.085-0.026,0.163-0.077,0.23c-0.052,0.069-0.142,0.124-0.27,0.167s-0.299,0.077-0.513,0.103
		c-0.214,0.025-0.487,0.039-0.82,0.039c-0.325,0-0.597-0.013-0.814-0.039c-0.218-0.026-0.391-0.06-0.519-0.103
		c-0.129-0.043-0.221-0.098-0.276-0.167c-0.056-0.068-0.083-0.145-0.083-0.23V51.574c0-0.085,0.027-0.162,0.083-0.23
		s0.147-0.124,0.276-0.167c0.128-0.042,0.301-0.077,0.519-0.103c0.218-0.025,0.489-0.039,0.814-0.039
		c0.333,0,0.606,0.013,0.82,0.039c0.214,0.026,0.385,0.06,0.513,0.103c0.128,0.043,0.218,0.099,0.27,0.167
		c0.051,0.068,0.077,0.145,0.077,0.23v6.089h6.204v-6.089c0-0.085,0.028-0.162,0.084-0.23c0.055-0.068,0.145-0.124,0.269-0.167
		c0.124-0.042,0.295-0.077,0.513-0.103c0.219-0.025,0.494-0.039,0.827-0.039c0.325,0,0.594,0.013,0.808,0.039
		c0.214,0.026,0.385,0.06,0.513,0.103c0.128,0.043,0.22,0.099,0.275,0.167s0.084,0.145,0.084,0.23V67.24z"/>
	<path fill="#1F1D57" d="M339.91,59.215c0,1.376-0.171,2.607-0.513,3.692s-0.851,2.006-1.525,2.763s-1.511,1.333-2.506,1.73
		c-0.996,0.397-2.147,0.596-3.455,0.596c-1.291,0-2.417-0.169-3.378-0.506c-0.962-0.337-1.763-0.853-2.404-1.545
		c-0.641-0.692-1.121-1.572-1.442-2.641c-0.32-1.068-0.48-2.333-0.48-3.795c0-1.342,0.171-2.549,0.513-3.622
		c0.342-1.072,0.851-1.985,1.525-2.737c0.676-0.752,1.511-1.329,2.507-1.73c0.995-0.401,2.151-0.603,3.468-0.603
		c1.256,0,2.365,0.167,3.327,0.5c0.961,0.333,1.765,0.846,2.409,1.539c0.646,0.692,1.133,1.566,1.462,2.622
		S339.91,57.779,339.91,59.215z M336.372,59.395c0-0.872-0.068-1.665-0.205-2.378c-0.137-0.713-0.369-1.324-0.698-1.833
		c-0.329-0.508-0.768-0.902-1.314-1.18c-0.547-0.277-1.23-0.417-2.051-0.417c-0.829,0-1.521,0.156-2.077,0.468
		c-0.556,0.313-1.004,0.729-1.346,1.25c-0.342,0.521-0.584,1.13-0.725,1.827c-0.141,0.696-0.212,1.434-0.212,2.211
		c0,0.906,0.068,1.72,0.205,2.442c0.137,0.723,0.368,1.34,0.692,1.853c0.325,0.513,0.761,0.904,1.308,1.173
		c0.547,0.27,1.235,0.404,2.064,0.404s1.521-0.154,2.077-0.462c0.555-0.308,1.004-0.726,1.346-1.256
		c0.342-0.53,0.583-1.147,0.725-1.853C336.302,60.939,336.372,60.189,336.372,59.395z"/>
	<path fill="#1F1D57" d="M352.576,62.728c0,0.872-0.163,1.637-0.487,2.295c-0.325,0.658-0.765,1.207-1.32,1.647
		c-0.556,0.44-1.205,0.771-1.949,0.994c-0.743,0.222-1.538,0.333-2.384,0.333c-0.573,0-1.105-0.047-1.597-0.141
		c-0.491-0.094-0.925-0.207-1.301-0.34c-0.376-0.132-0.69-0.271-0.942-0.417c-0.252-0.145-0.434-0.273-0.545-0.385
		c-0.111-0.111-0.19-0.271-0.237-0.48s-0.07-0.511-0.07-0.904c0-0.265,0.009-0.487,0.025-0.667c0.018-0.18,0.045-0.325,0.084-0.436
		c0.038-0.111,0.09-0.19,0.153-0.237c0.064-0.047,0.139-0.07,0.225-0.07c0.119,0,0.288,0.07,0.506,0.211
		c0.219,0.141,0.498,0.297,0.84,0.468c0.342,0.171,0.75,0.327,1.225,0.468c0.475,0.141,1.023,0.211,1.647,0.211
		c0.41,0,0.777-0.049,1.103-0.147c0.324-0.098,0.601-0.237,0.827-0.417c0.226-0.18,0.399-0.402,0.519-0.667
		c0.12-0.265,0.18-0.56,0.18-0.884c0-0.376-0.103-0.699-0.308-0.968c-0.205-0.269-0.473-0.508-0.802-0.718s-0.703-0.406-1.121-0.59
		c-0.419-0.184-0.851-0.378-1.295-0.583s-0.876-0.438-1.295-0.699s-0.793-0.573-1.122-0.936c-0.329-0.363-0.596-0.792-0.801-1.288
		s-0.308-1.09-0.308-1.782c0-0.795,0.147-1.494,0.442-2.096c0.295-0.603,0.692-1.103,1.192-1.5s1.089-0.694,1.769-0.891
		c0.68-0.196,1.399-0.295,2.16-0.295c0.394,0,0.786,0.03,1.18,0.09c0.393,0.06,0.761,0.141,1.103,0.244s0.646,0.218,0.91,0.346
		c0.265,0.128,0.44,0.235,0.525,0.32c0.086,0.085,0.144,0.158,0.173,0.218c0.03,0.06,0.056,0.139,0.077,0.237
		s0.036,0.222,0.045,0.372c0.009,0.15,0.013,0.336,0.013,0.558c0,0.248-0.006,0.457-0.019,0.628
		c-0.014,0.171-0.035,0.312-0.064,0.423c-0.03,0.111-0.073,0.192-0.128,0.244c-0.056,0.051-0.131,0.077-0.225,0.077
		c-0.095,0-0.244-0.06-0.449-0.18c-0.205-0.12-0.457-0.25-0.756-0.391c-0.3-0.141-0.646-0.269-1.038-0.384
		c-0.394-0.115-0.825-0.173-1.295-0.173c-0.368,0-0.688,0.045-0.962,0.135s-0.502,0.214-0.686,0.372
		c-0.184,0.159-0.32,0.349-0.41,0.571s-0.135,0.457-0.135,0.705c0,0.368,0.101,0.686,0.301,0.955
		c0.201,0.269,0.471,0.508,0.808,0.718c0.338,0.209,0.721,0.406,1.147,0.59c0.428,0.184,0.863,0.378,1.308,0.583
		c0.444,0.206,0.881,0.438,1.308,0.699c0.428,0.261,0.808,0.573,1.142,0.936c0.333,0.363,0.603,0.791,0.808,1.282
		C352.474,61.482,352.576,62.061,352.576,62.728z"/>
	<path fill="#1F1D57" d="M366.512,56.151c0,0.932-0.146,1.756-0.436,2.474c-0.291,0.718-0.714,1.323-1.27,1.814
		c-0.556,0.491-1.237,0.865-2.045,1.122s-1.759,0.384-2.853,0.384h-1.384v5.295c0,0.085-0.028,0.163-0.084,0.23
		c-0.056,0.069-0.147,0.124-0.275,0.167s-0.299,0.077-0.513,0.103c-0.214,0.025-0.487,0.039-0.82,0.039
		c-0.325,0-0.597-0.013-0.814-0.039c-0.218-0.026-0.391-0.06-0.52-0.103c-0.128-0.043-0.218-0.098-0.269-0.167
		c-0.052-0.068-0.077-0.145-0.077-0.23V52.318c0-0.402,0.104-0.703,0.314-0.904c0.209-0.201,0.484-0.301,0.826-0.301h3.91
		c0.394,0,0.768,0.015,1.122,0.045s0.779,0.094,1.275,0.192s0.998,0.28,1.507,0.544c0.508,0.265,0.941,0.601,1.301,1.007
		c0.359,0.406,0.633,0.88,0.82,1.423C366.418,54.867,366.512,55.476,366.512,56.151z M362.986,56.395
		c0-0.581-0.103-1.06-0.308-1.436c-0.205-0.376-0.457-0.654-0.757-0.833c-0.299-0.18-0.613-0.292-0.942-0.34
		c-0.329-0.047-0.668-0.07-1.019-0.07h-1.436v5.628h1.513c0.538,0,0.988-0.073,1.353-0.218c0.362-0.145,0.66-0.348,0.891-0.609
		c0.23-0.26,0.405-0.572,0.525-0.936S362.986,56.822,362.986,56.395z"/>
	<path fill="#1F1D57" d="M372.512,67.24c0,0.085-0.028,0.163-0.084,0.23c-0.056,0.069-0.147,0.124-0.275,0.167
		s-0.299,0.077-0.513,0.103c-0.214,0.025-0.487,0.039-0.82,0.039c-0.325,0-0.597-0.013-0.814-0.039
		c-0.218-0.026-0.391-0.06-0.519-0.103c-0.129-0.043-0.221-0.098-0.276-0.167c-0.056-0.068-0.083-0.145-0.083-0.23V51.574
		c0-0.085,0.027-0.162,0.083-0.23s0.149-0.124,0.282-0.167c0.133-0.042,0.306-0.077,0.52-0.103c0.213-0.025,0.482-0.039,0.808-0.039
		c0.333,0,0.606,0.013,0.82,0.039c0.214,0.026,0.385,0.06,0.513,0.103c0.128,0.043,0.22,0.099,0.275,0.167s0.084,0.145,0.084,0.23
		V67.24z"/>
	<path fill="#1F1D57" d="M387.164,52.497c0,0.248-0.011,0.46-0.032,0.635c-0.021,0.175-0.054,0.316-0.096,0.423
		c-0.043,0.107-0.097,0.186-0.161,0.237c-0.063,0.051-0.134,0.077-0.211,0.077h-4.154V67.24c0,0.085-0.027,0.163-0.083,0.23
		c-0.056,0.069-0.147,0.124-0.275,0.167s-0.302,0.077-0.52,0.103c-0.218,0.025-0.489,0.039-0.813,0.039
		c-0.325,0-0.597-0.013-0.814-0.039c-0.218-0.026-0.391-0.06-0.52-0.103c-0.128-0.043-0.22-0.098-0.275-0.167
		c-0.056-0.068-0.083-0.145-0.083-0.23V53.869h-4.153c-0.086,0-0.159-0.026-0.219-0.077s-0.111-0.13-0.153-0.237
		c-0.043-0.107-0.075-0.248-0.097-0.423c-0.021-0.175-0.031-0.387-0.031-0.635c0-0.256,0.01-0.474,0.031-0.654
		c0.021-0.179,0.054-0.322,0.097-0.429c0.042-0.107,0.094-0.184,0.153-0.231c0.06-0.047,0.133-0.07,0.219-0.07h11.691
		c0.077,0,0.147,0.023,0.211,0.07c0.064,0.047,0.118,0.124,0.161,0.231c0.042,0.107,0.074,0.25,0.096,0.429
		C387.153,52.023,387.164,52.241,387.164,52.497z"/>
	<path fill="#1F1D57" d="M400.65,66.445c0.103,0.308,0.167,0.551,0.192,0.731c0.025,0.179-0.009,0.314-0.103,0.404
		c-0.094,0.089-0.261,0.145-0.5,0.167c-0.239,0.021-0.568,0.032-0.987,0.032c-0.436,0-0.775-0.007-1.019-0.02
		c-0.244-0.013-0.43-0.039-0.558-0.077c-0.129-0.039-0.219-0.092-0.27-0.161c-0.052-0.068-0.095-0.158-0.128-0.269l-1.115-3.333
		h-6.23l-1.052,3.243c-0.034,0.12-0.079,0.22-0.135,0.301c-0.056,0.082-0.146,0.146-0.269,0.192c-0.124,0.047-0.3,0.079-0.526,0.096
		s-0.523,0.026-0.891,0.026c-0.394,0-0.701-0.013-0.923-0.039c-0.223-0.026-0.376-0.088-0.462-0.186
		c-0.085-0.098-0.115-0.237-0.09-0.417c0.026-0.18,0.09-0.419,0.192-0.718l5.115-14.717c0.052-0.146,0.111-0.263,0.18-0.353
		c0.068-0.09,0.177-0.158,0.327-0.205c0.149-0.047,0.356-0.077,0.621-0.09c0.266-0.013,0.615-0.02,1.052-0.02
		c0.504,0,0.905,0.007,1.205,0.02c0.299,0.013,0.532,0.043,0.698,0.09c0.167,0.047,0.286,0.117,0.359,0.211
		c0.072,0.094,0.135,0.222,0.186,0.384L400.65,66.445z M393.035,54.279h-0.013l-2.346,7.051h4.705L393.035,54.279z"/>
	<path fill="#1F1D57" d="M412.086,66.292c0,0.256-0.011,0.472-0.032,0.647s-0.054,0.32-0.097,0.436
		c-0.043,0.116-0.096,0.199-0.16,0.25c-0.063,0.051-0.139,0.077-0.224,0.077h-7.603c-0.282,0-0.52-0.083-0.712-0.25
		s-0.288-0.438-0.288-0.814V51.574c0-0.085,0.027-0.162,0.083-0.23s0.147-0.124,0.276-0.167c0.128-0.042,0.301-0.077,0.519-0.103
		c0.218-0.025,0.489-0.039,0.814-0.039c0.333,0,0.606,0.013,0.82,0.039c0.214,0.026,0.385,0.06,0.513,0.103
		c0.128,0.043,0.22,0.099,0.275,0.167s0.084,0.145,0.084,0.23V64.92h5.218c0.085,0,0.16,0.023,0.224,0.07
		c0.064,0.047,0.117,0.124,0.16,0.231s0.075,0.248,0.097,0.423C412.075,65.819,412.086,66.035,412.086,66.292z"/>
</g>
</svg>
